<?xml version="1.0" encoding="UTF-8"?>
<svg version="1.1" xmlns="http://www.w3.org/2000/svg" width="2500" height="817">
<path d="M0 0 C2.61720941 0.00314947 5.23327173 -0.02036504 7.8503418 -0.0456543 C25.1365587 -0.10964095 41.91964579 2.15383253 58.44995117 7.31567383 C59.91029785 7.76837646 59.91029785 7.76837646 61.40014648 8.23022461 C90.24899335 17.27182296 116.88539881 29.05451542 140.44995117 48.31567383 C142.04750263 49.53273975 143.65076725 50.74238544 145.26245117 51.94067383 C146.84026367 53.11629883 146.84026367 53.11629883 148.44995117 54.31567383 C148.82764648 53.66083008 149.2053418 53.00598633 149.59448242 52.33129883 C163.06021175 30.00404739 184.27091186 15.82204593 209.44995117 9.31567383 C228.91153229 4.60238388 250.52637767 2.2452601 270.44995117 5.31567383 C272.1010911 6.96681376 271.57307203 8.94047486 271.58095965 11.14693096 C271.57833263 11.84540291 271.57570562 12.54387485 271.572999 13.26351261 C271.57415284 14.00248576 271.57530669 14.7414589 271.5764955 15.50282517 C271.57916917 18.01061813 271.57463388 20.51834852 271.57020569 23.02613831 C271.57064124 24.82953927 271.57151584 26.63294018 271.57279485 28.43634075 C271.57504303 33.41657716 271.57101416 38.39679227 271.56601679 43.37702596 C271.56171707 48.73834 271.56315837 54.09965274 271.56391907 59.46096802 C271.56444461 68.75798899 271.56129468 78.05500296 271.55568123 87.35202217 C271.54757028 100.79411885 271.54495143 114.23621213 271.54369324 127.67831098 C271.54150208 149.48476132 271.53484027 171.29120794 271.52539062 193.09765625 C271.51621816 214.28645814 271.50913652 235.47525902 271.50488281 256.6640625 C271.50448873 258.62164402 271.50448873 258.62164402 271.50408668 260.61877263 C271.50278169 267.16554113 271.50151797 273.71230964 271.50027478 280.25907815 C271.48990018 334.61127928 271.47228013 388.96347638 271.44995117 443.31567383 C269.70812329 443.47934232 267.96615133 443.64147797 266.22412109 443.80297852 C265.25407639 443.89343445 264.28403168 443.98389038 263.28459167 444.0770874 C229.72334017 446.9018756 194.32777913 439.8720544 167.90307617 418.22973633 C160.59900338 411.92167346 154.11510733 404.81852725 149.44995117 396.31567383 C149.44995117 395.65567383 149.44995117 394.99567383 149.44995117 394.31567383 C145.73992998 396.70941504 142.27669734 399.21152501 138.86035156 402.01953125 C130.26931351 409.0492514 121.05568092 414.78332846 111.44995117 420.31567383 C110.80944824 420.68821289 110.16894531 421.06075195 109.5090332 421.44458008 C86.85632248 434.50256382 59.34652886 444.82905533 33.44995117 448.31567383 C32.72533691 448.41428711 32.00072266 448.51290039 31.25415039 448.61450195 C-15.97812684 454.80188163 -64.61921019 445.71603972 -103.55004883 417.31567383 C-104.59676758 416.56543945 -105.64348633 415.81520508 -106.72192383 415.04223633 C-141.99304941 389.00069746 -165.5855938 350.7322651 -178.55004883 309.31567383 C-178.785625 308.56753418 -179.02120117 307.81939453 -179.26391602 307.04858398 C-193.46356513 261.1377356 -194.32395139 209.15888974 -184.55004883 162.31567383 C-184.34927734 161.34645996 -184.14850586 160.37724609 -183.94165039 159.37866211 C-175.18466706 118.40704443 -155.90502767 82.88836052 -127.55004883 52.31567383 C-127.01250977 51.72399414 -126.4749707 51.13231445 -125.92114258 50.52270508 C-104.50475367 27.92546264 -74.1778337 12.59929048 -44.36254883 5.00317383 C-43.41371826 4.76058838 -42.4648877 4.51800293 -41.48730469 4.26806641 C-27.66991403 0.92566383 -14.15107501 -0.03541376 0 0 Z M-23.55004883 144.31567383 C-24.23454102 144.92668945 -24.9190332 145.53770508 -25.62426758 146.16723633 C-43.02518599 162.23488201 -51.51710161 188.06451695 -52.7565918 211.16503906 C-52.87712276 215.2780004 -52.88457634 219.38879988 -52.86254883 223.50317383 C-52.86039368 224.22900665 -52.85823853 224.95483948 -52.85601807 225.70266724 C-52.70922754 256.54692133 -44.24572455 283.63390935 -22.80004883 306.50317383 C-3.20724792 325.15174337 20.30117859 332.86337666 47.01635742 332.52661133 C69.9503726 331.87719506 90.08686049 322.21281385 106.44995117 306.31567383 C107.20920898 305.62989258 107.9684668 304.94411133 108.75073242 304.23754883 C128.34045627 285.96734006 136.0845095 258.09017435 137.36401367 232.07202148 C138.28908675 202.40135364 132.64979639 171.47125384 112.01245117 148.94067383 C110.19112802 147.02754311 108.33070746 145.17235215 106.44995117 143.31567383 C105.63655273 142.50356445 104.8231543 141.69145508 103.98510742 140.85473633 C86.56547294 124.31031849 63.6003847 116.70160762 39.82739258 116.96411133 C15.01361562 117.78572179 -5.78124424 127.07588794 -23.55004883 144.31567383 Z " fill="#005BA1" transform="translate(941.550048828125,142.684326171875)"/>
<path d="M0 0 C1.01795151 -0.00570007 2.03590302 -0.01140015 3.08470154 -0.01727295 C5.23703998 -0.0266784 7.38939253 -0.0332391 9.54174805 -0.03710938 C12.74750976 -0.0466924 15.95259478 -0.07770734 19.15820312 -0.109375 C37.95374549 -0.20672795 56.67454041 1.25211818 74.93359375 5.953125 C75.9599292 6.20989014 76.98626465 6.46665527 78.04370117 6.73120117 C112.62211273 15.60464552 144.59684091 30.78098832 170.984375 55.12890625 C173.02934042 57.00434086 175.1222885 58.79345033 177.24609375 60.578125 C208.8764694 88.34959482 228.72662765 131.13508501 236.99609375 171.765625 C237.29398804 173.21654541 237.29398804 173.21654541 237.59790039 174.69677734 C240.79013024 191.20340826 241.6229201 207.5474079 241.55859375 224.328125 C241.55585953 225.81181076 241.55585953 225.81181076 241.55307007 227.32546997 C241.50712135 242.14864601 241.06682998 256.60803606 238.24609375 271.203125 C238.07980469 272.09789551 237.91351562 272.99266602 237.7421875 273.91455078 C227.25421768 328.83072609 196.96418145 378.08687589 150.84179688 410.01538086 C117.95275635 432.29379046 79.78276211 445.53125299 40.24609375 449.203125 C39.11429688 449.31398438 37.9825 449.42484375 36.81640625 449.5390625 C-9.75238465 453.37657979 -59.38626788 446.68528822 -100.86376953 424.22412109 C-102.77385245 423.19235065 -104.69830265 422.19174171 -106.625 421.19140625 C-123.90660743 412.03814905 -138.89305756 399.91073612 -152.75390625 386.203125 C-153.635625 385.34883911 -153.635625 385.34883911 -154.53515625 384.47729492 C-158.43041712 380.66512589 -161.93247009 376.70922387 -165.25390625 372.390625 C-165.72747559 371.77952881 -166.20104492 371.16843262 -166.68896484 370.53881836 C-190.27673714 339.91814225 -204.56686962 305.35074393 -210.75390625 267.203125 C-210.87846191 266.43967773 -211.00301758 265.67623047 -211.13134766 264.88964844 C-213.48213695 249.90728469 -214.16254873 234.36004592 -213.75390625 219.203125 C-213.74133789 218.54570312 -213.72876953 217.88828125 -213.71582031 217.2109375 C-212.63363161 167.56277009 -197.71273915 117.80977099 -165.75390625 79.203125 C-165.27808105 78.62578613 -164.80225586 78.04844727 -164.31201172 77.45361328 C-154.40455827 65.50079171 -143.95800804 54.88097445 -131.53320312 45.54248047 C-130.38879352 44.68103273 -129.24904124 43.81334394 -128.11523438 42.93798828 C-97.02961997 18.95792894 -58.3208935 6.24373435 -19.75390625 1.203125 C-18.78766075 1.07429932 -18.78766075 1.07429932 -17.80189514 0.94287109 C-11.85827063 0.20811185 -5.98505926 0.0267724 0 0 Z M-45.75390625 139.203125 C-46.81544922 140.12351562 -46.81544922 140.12351562 -47.8984375 141.0625 C-65.6295042 157.42963849 -74.61394712 184.65747196 -75.86019897 208.21209717 C-75.91689851 210.29032279 -75.94461463 212.36635274 -75.95703125 214.4453125 C-75.96273132 215.21255646 -75.9684314 215.97980042 -75.9743042 216.77029419 C-75.9836935 218.38884125 -75.99026381 220.00740691 -75.99414062 221.62597656 C-76.00374436 224.03747436 -76.03478271 226.44808011 -76.06640625 228.859375 C-76.24736325 255.41337238 -70.15692164 284.03851751 -51.75390625 304.203125 C-50.96628906 305.08226562 -50.17867187 305.96140625 -49.3671875 306.8671875 C-34.16843888 322.97564224 -13.9786498 332.26295966 8.18359375 333.40625 C34.40460727 333.90951395 56.79327043 325.01459711 75.86303711 306.92041016 C81.69952788 301.23543407 86.30673389 295.38128846 90.24609375 288.203125 C90.766875 287.28144531 91.28765625 286.35976563 91.82421875 285.41015625 C108.15391103 254.85383812 108.79277583 213.66923982 99.05859375 180.953125 C91.29558986 156.99063816 76.21861666 137.74602449 54.08984375 125.44921875 C43.40310592 120.17198064 31.1966199 116.72767099 19.24609375 116.203125 C18.14007812 116.14318359 18.14007812 116.14318359 17.01171875 116.08203125 C-6.6273346 115.42539088 -28.21467074 123.4536074 -45.75390625 139.203125 Z " fill="#005BA1" transform="translate(2258.75390625,142.796875)"/>
<path d="M0 0 C1.01795151 -0.00570007 2.03590302 -0.01140015 3.08470154 -0.01727295 C5.23703998 -0.0266784 7.38939253 -0.0332391 9.54174805 -0.03710938 C12.74750976 -0.0466924 15.95259478 -0.07770734 19.15820312 -0.109375 C37.95374549 -0.20672795 56.67454041 1.25211818 74.93359375 5.953125 C75.9599292 6.20989014 76.98626465 6.46665527 78.04370117 6.73120117 C112.62211273 15.60464552 144.59684091 30.78098832 170.984375 55.12890625 C173.02934042 57.00434086 175.1222885 58.79345033 177.24609375 60.578125 C208.8764694 88.34959482 228.72662765 131.13508501 236.99609375 171.765625 C237.29398804 173.21654541 237.29398804 173.21654541 237.59790039 174.69677734 C240.79013024 191.20340826 241.6229201 207.5474079 241.55859375 224.328125 C241.55585953 225.81181076 241.55585953 225.81181076 241.55307007 227.32546997 C241.50712135 242.14864601 241.06682998 256.60803606 238.24609375 271.203125 C238.07980469 272.09789551 237.91351562 272.99266602 237.7421875 273.91455078 C227.25421768 328.83072609 196.96418145 378.08687589 150.84179688 410.01538086 C117.95275635 432.29379046 79.78276211 445.53125299 40.24609375 449.203125 C39.11429688 449.31398438 37.9825 449.42484375 36.81640625 449.5390625 C-9.75238465 453.37657979 -59.38626788 446.68528822 -100.86376953 424.22412109 C-102.77385245 423.19235065 -104.69830265 422.19174171 -106.625 421.19140625 C-123.90660743 412.03814905 -138.89305756 399.91073612 -152.75390625 386.203125 C-153.635625 385.34883911 -153.635625 385.34883911 -154.53515625 384.47729492 C-158.43041712 380.66512589 -161.93247009 376.70922387 -165.25390625 372.390625 C-165.72747559 371.77952881 -166.20104492 371.16843262 -166.68896484 370.53881836 C-190.27673714 339.91814225 -204.56686962 305.35074393 -210.75390625 267.203125 C-210.87846191 266.43967773 -211.00301758 265.67623047 -211.13134766 264.88964844 C-213.48213695 249.90728469 -214.16254873 234.36004592 -213.75390625 219.203125 C-213.74133789 218.54570312 -213.72876953 217.88828125 -213.71582031 217.2109375 C-212.63363161 167.56277009 -197.71273915 117.80977099 -165.75390625 79.203125 C-165.27808105 78.62578613 -164.80225586 78.04844727 -164.31201172 77.45361328 C-154.40455827 65.50079171 -143.95800804 54.88097445 -131.53320312 45.54248047 C-130.38879352 44.68103273 -129.24904124 43.81334394 -128.11523438 42.93798828 C-97.02961997 18.95792894 -58.3208935 6.24373435 -19.75390625 1.203125 C-18.78766075 1.07429932 -18.78766075 1.07429932 -17.80189514 0.94287109 C-11.85827063 0.20811185 -5.98505926 0.0267724 0 0 Z M-45.75390625 139.203125 C-46.81544922 140.12351562 -46.81544922 140.12351562 -47.8984375 141.0625 C-65.6295042 157.42963849 -74.61394712 184.65747196 -75.86019897 208.21209717 C-75.91689851 210.29032279 -75.94461463 212.36635274 -75.95703125 214.4453125 C-75.96273132 215.21255646 -75.9684314 215.97980042 -75.9743042 216.77029419 C-75.9836935 218.38884125 -75.99026381 220.00740691 -75.99414062 221.62597656 C-76.00374436 224.03747436 -76.03478271 226.44808011 -76.06640625 228.859375 C-76.24736325 255.41337238 -70.15692164 284.03851751 -51.75390625 304.203125 C-50.96628906 305.08226562 -50.17867187 305.96140625 -49.3671875 306.8671875 C-34.16843888 322.97564224 -13.9786498 332.26295966 8.18359375 333.40625 C34.40460727 333.90951395 56.79327043 325.01459711 75.86303711 306.92041016 C81.69952788 301.23543407 86.30673389 295.38128846 90.24609375 288.203125 C90.766875 287.28144531 91.28765625 286.35976563 91.82421875 285.41015625 C108.15391103 254.85383812 108.79277583 213.66923982 99.05859375 180.953125 C91.29558986 156.99063816 76.21861666 137.74602449 54.08984375 125.44921875 C43.40310592 120.17198064 31.1966199 116.72767099 19.24609375 116.203125 C18.14007812 116.14318359 18.14007812 116.14318359 17.01171875 116.08203125 C-6.6273346 115.42539088 -28.21467074 123.4536074 -45.75390625 139.203125 Z " fill="#005BA1" transform="translate(1735.75390625,142.796875)"/>
<path d="M0 0 C3.22869961 0.01612761 6.45615139 0.00000519 9.68481445 -0.01904297 C28.17003271 -0.03867137 46.44973401 1.59394125 64.41333008 6.14111328 C65.45005859 6.39932861 66.48678711 6.65754395 67.55493164 6.92358398 C106.90008658 17.03857262 142.80287721 40.14114892 164.15185547 75.30615234 C165.34202493 77.32387845 166.50828846 79.35309765 167.66333008 81.39111328 C168.19651855 82.32165527 168.19651855 82.32165527 168.74047852 83.27099609 C179.76418729 102.84454849 187.66333008 126.82529248 187.66333008 149.39111328 C146.41333008 149.39111328 105.16333008 149.39111328 62.66333008 149.39111328 C61.67333008 145.43111328 60.68333008 141.47111328 59.66333008 137.39111328 C54.48705395 123.74331892 45.83008495 113.77377799 32.66333008 107.39111328 C15.08957853 99.67705373 -7.00871045 98.36975487 -25.33666992 104.39111328 C-35.33598442 108.3662506 -41.86742588 113.43769727 -46.33666992 123.39111328 C-48.45497107 129.98734217 -48.35908645 137.81026714 -45.71166992 144.20361328 C-40.12027493 155.01494696 -31.232101 160.0476497 -20.14916992 164.20361328 C-19.25045166 164.54199219 -18.3517334 164.88037109 -17.42578125 165.22900391 C-1.87989144 170.90542431 14.25375543 174.84537425 30.31521606 178.76069641 C118.65896354 200.29880933 118.65896354 200.29880933 150.66333008 227.39111328 C151.49864258 228.09107422 152.33395508 228.79103516 153.19458008 229.51220703 C159.44681279 234.92501961 164.64714754 240.82788379 169.66333008 247.39111328 C170.28079102 248.16970703 170.89825195 248.94830078 171.53442383 249.75048828 C190.03085237 274.30254042 193.12278026 308.6007979 189.02270508 338.125 C184.08050547 369.28906027 165.28147903 396.43619251 140.13598633 414.94970703 C89.98290041 450.76927704 22.47189856 456.56037254 -36.83666992 446.70361328 C-73.91106577 440.05177654 -111.47641912 425.5842175 -139.21166992 399.39501953 C-141.21172658 397.50893669 -143.2806599 395.76636667 -145.39916992 394.01611328 C-150.35968971 389.67193062 -154.33231435 384.60810232 -158.33666992 379.39111328 C-159.14233398 378.35083984 -159.94799805 377.31056641 -160.77807617 376.23876953 C-177.51211879 354.08004512 -188.33666992 327.3127494 -188.33666992 299.39111328 C-144.44666992 299.39111328 -100.55666992 299.39111328 -55.33666992 299.39111328 C-53.35666992 306.81611328 -53.35666992 306.81611328 -51.33666992 314.39111328 C-45.13133243 328.13150343 -34.78233679 337.90758504 -20.91479492 343.85986328 C-0.00907554 351.71091947 23.76637964 352.32271396 44.53833008 343.50830078 C47.66448153 341.86477263 50.0445032 339.74805747 52.66333008 337.39111328 C53.32333008 337.39111328 53.98333008 337.39111328 54.66333008 337.39111328 C54.94047852 336.82779297 55.21762695 336.26447266 55.50317383 335.68408203 C56.27892401 334.15086534 57.08408049 332.63218964 57.91723633 331.12939453 C62.20575319 323.17963641 63.77788406 316.44122247 61.44848633 307.58642578 C58.50908982 299.36781465 52.70084924 293.15659421 44.84301758 289.37158203 C43.41603237 288.75527669 41.98039937 288.15874705 40.53833008 287.57861328 C39.30373047 287.07624146 39.30373047 287.07624146 38.04418945 286.5637207 C16.70610984 278.12877939 -5.53091137 272.74796604 -27.73806763 267.17877197 C-82.393135 253.44686571 -82.393135 253.44686571 -106.33666992 242.39111328 C-107.32836182 241.93454346 -107.32836182 241.93454346 -108.34008789 241.46875 C-128.40184958 232.00471256 -149.24123546 215.84570975 -160.33666992 196.39111328 C-160.92577148 195.36115234 -161.51487305 194.33119141 -162.12182617 193.27001953 C-165.50026114 186.95069637 -168.09826244 180.6792032 -170.14916992 173.82861328 C-170.34397949 173.18142334 -170.53878906 172.5342334 -170.73950195 171.86743164 C-173.96240634 160.35158252 -174.74681077 148.73958525 -174.71166992 136.82861328 C-174.71085419 135.78120972 -174.71085419 135.78120972 -174.71002197 134.71264648 C-174.58825623 100.55979147 -161.68273762 71.16203707 -137.77807617 46.80957031 C-129.54212053 38.70474269 -120.24000184 32.2449568 -110.33666992 26.39111328 C-109.71759766 26.02131348 -109.09852539 25.65151367 -108.46069336 25.27050781 C-75.74071978 6.0210083 -37.46804918 -0.221486 0 0 Z " fill="#005BA1" transform="translate(188.336669921875,142.60888671875)"/>
<path d="M0 0 C0 35.31 0 70.62 0 107 C29.04 107 58.08 107 88 107 C88 143.3 88 179.6 88 217 C58.96 217 29.92 217 0 217 C0.09061433 249.05475318 0.09061433 249.05475318 0.20898438 281.109375 C0.26343182 294.18488284 0.31484657 307.26035178 0.34643555 320.3359375 C0.36945774 329.85966632 0.40290284 339.38329271 0.44870156 348.90694022 C0.47257687 353.94650256 0.49134291 358.98596381 0.49761391 364.02558136 C0.50369056 368.77638741 0.52378307 373.52693501 0.55427551 378.27764511 C0.56301454 380.01414821 0.56678697 381.75068514 0.56500816 383.48720932 C0.52323775 401.25861195 0.52323775 401.25861195 8 417 C8 417.66 8 418.32 8 419 C12.04649037 421.03280013 12.04649037 421.03280013 16.125 423 C16.80820312 423.33 17.49140625 423.66 18.1953125 424 C26.69798998 427.03159531 35.2519955 427.31473886 44.19921875 427.37890625 C45.43364212 427.39590073 46.66806549 427.4128952 47.93989563 427.43040466 C51.85571275 427.48318866 55.77152163 427.52367541 59.6875 427.5625 C63.61413756 427.60657082 67.54069789 427.6533625 71.46723938 427.70530701 C73.90239094 427.73701847 76.33761029 427.76398249 78.77287292 427.78553772 C84.27801984 427.85253976 89.57672264 428.02656609 95 429 C95.79351138 457.15495931 91.03075088 486.02401386 72 508 C71.37609375 508.81339844 70.7521875 509.62679688 70.109375 510.46484375 C56.06844284 527.33996407 33.96351825 534.70292084 13 538 C12.19046875 538.13148438 11.3809375 538.26296875 10.546875 538.3984375 C-24.49317249 542.9315905 -59.52559466 533.85564794 -87.6875 512.5625 C-89.13671522 511.38932578 -90.57391414 510.20118343 -92 509 C-93.23363281 507.96746094 -93.23363281 507.96746094 -94.4921875 506.9140625 C-122.08023585 483.01560116 -131.7315126 446.91640984 -134.53587341 411.74642944 C-135.1494886 402.91187115 -135.1327365 394.09680175 -135.11352539 385.24462891 C-135.11324269 383.40022279 -135.11340288 381.55581657 -135.1139679 379.71141052 C-135.11425262 374.74751179 -135.10840869 369.78363765 -135.10139394 364.81974459 C-135.09510605 359.61610828 -135.09455233 354.4124713 -135.09336853 349.20883179 C-135.09027115 339.37427852 -135.0820794 329.53973649 -135.07201904 319.70518816 C-135.06080822 308.50072511 -135.05533497 297.29626151 -135.05032361 286.09179425 C-135.03989532 263.06118852 -135.02156982 240.03059817 -135 217 C-152.49 217 -169.98 217 -188 217 C-188 180.7 -188 144.4 -188 107 C-170.51 107 -153.02 107 -135 107 C-135 101.06 -135 95.12 -135 89 C-134.55802339 85.43455743 -134.10577232 82.20661345 -133.3125 78.75 C-133.13170898 77.91774902 -132.95091797 77.08549805 -132.76464844 76.22802734 C-127.08533828 51.1355386 -113.7890185 30.31244152 -91.86767578 16.31542969 C-64.1868809 -0.37952682 -31.43193662 -2.41784128 0 0 Z " fill="#005BA1" transform="translate(616,44)"/>
<path d="M0 0 C1.64035926 1.99362015 2.99258348 3.89997292 4.375 6.0625 C27.04252039 39.44175362 65.27278103 60.78897569 104.36523438 68.51855469 C140.49075269 75.11969647 178.84504883 64.47964914 209.3203125 44.47705078 C217.73817823 38.63027788 225.5952863 32.08276963 233 25 C233.6703125 24.38125 234.340625 23.7625 235.03125 23.125 C241.10502286 17.34045442 246.00547557 10.70667934 251 4 C252 2.66666667 253 1.33333333 254 0 C257.86420891 0.57215816 260.47732609 1.6748535 263.75390625 3.78125 C264.67647217 4.36729004 265.59903809 4.95333008 266.54956055 5.55712891 C267.54383057 6.19827637 268.53810059 6.83942383 269.5625 7.5 C271.7254677 8.87412065 273.88957734 10.24644506 276.0546875 11.6171875 C276.89929787 12.15320084 276.89929787 12.15320084 277.76097107 12.70004272 C284.18112944 16.7662808 290.68294117 20.69578411 297.1875 24.625 C299.56041207 26.06034625 301.93275138 27.49663533 304.3046875 28.93359375 C304.87807861 29.28096085 305.45146973 29.62832794 306.04223633 29.98622131 C312.16282349 33.69844518 318.24584373 37.47029569 324.32519531 41.24951172 C330.83667358 45.29290925 337.38315094 49.2765525 343.9375 53.25 C352.37931181 58.37029278 360.7409601 63.58939847 369 69 C368.58773276 74.38061607 365.51295213 77.97548794 362.4375 82.1875 C361.89029297 82.94780518 361.34308594 83.70811035 360.77929688 84.49145508 C356.68906086 90.13961816 352.47834132 95.65297853 348 101 C347.20207031 101.98226562 346.40414063 102.96453125 345.58203125 103.9765625 C339.26401337 111.64540818 332.44131001 118.76783701 325.4375 125.8125 C324.57552002 126.68366455 323.71354004 127.5548291 322.82543945 128.45239258 C316.85944567 134.39015166 310.59139121 139.77074818 304 145 C302.79628436 145.97713744 301.59306551 146.9548876 300.390625 147.93359375 C292.2437924 154.46548796 283.82828738 160.42517847 275 166 C274.37883301 166.39509766 273.75766602 166.79019531 273.11767578 167.19726562 C242.90009526 186.22632174 209.22178338 199.17341775 174 205 C173.14535156 205.15936035 172.29070312 205.3187207 171.41015625 205.48291016 C142.13074702 210.89202476 108.21249103 210.7090795 79 205 C77.96214355 204.80664062 76.92428711 204.61328125 75.85498047 204.4140625 C51.20735385 199.72685427 27.51277982 192.08929736 5 181 C3.83428467 180.43442383 3.83428467 180.43442383 2.64501953 179.85742188 C-26.02179954 165.83541478 -50.95286537 145.8622517 -74 124 C-74.825 123.21753906 -75.65 122.43507813 -76.5 121.62890625 C-81.25044671 117.00216909 -85.49376113 112.10725425 -89.62890625 106.92578125 C-91.67712716 104.39840487 -93.79148609 101.94999657 -95.94042969 99.50854492 C-100.95077548 93.77160984 -105.38480225 87.76568836 -109.625 81.4375 C-110.14618408 80.6633374 -110.66736816 79.8891748 -111.2043457 79.09155273 C-113.41772386 75.7246562 -115.19616124 72.99202959 -116 69 C-115.41323486 68.64397705 -114.82646973 68.2879541 -114.22192383 67.92114258 C-102.82818323 61.00481795 -91.45267392 54.06136252 -80.12573242 47.03613281 C-63.87630991 36.95873697 -47.59400158 26.93523298 -31.23364258 17.03881836 C-26.61303616 14.23497158 -22.02561551 11.39186642 -17.484375 8.4609375 C-16.17521118 7.61837402 -16.17521118 7.61837402 -14.83959961 6.75878906 C-13.19969838 5.69858048 -11.56475384 4.6306503 -9.93579102 3.55371094 C-9.21061279 3.08481445 -8.48543457 2.61591797 -7.73828125 2.1328125 C-7.10962158 1.71918457 -6.48096191 1.30555664 -5.83325195 0.87939453 C-4 0 -4 0 0 0 Z " fill="#005BA1" transform="translate(1622,609)"/>
<path d="M0 0 C0.09870816 2.32567453 0.13179688 4.62163687 0.12304783 6.94783878 C0.12420167 7.68681193 0.12535552 8.42578507 0.12654433 9.18715134 C0.129218 11.69494431 0.12468271 14.20267469 0.12025452 16.71046448 C0.12069007 18.51386545 0.12156467 20.31726635 0.12284368 22.12066692 C0.12509185 27.10090333 0.12106298 32.08111844 0.11606562 37.06135213 C0.1117659 42.42266617 0.1132072 47.78397891 0.1139679 53.14529419 C0.11449344 62.44231516 0.11134351 71.73932913 0.10573006 81.03634834 C0.09761911 94.47844502 0.09500025 107.9205383 0.09374207 121.36263715 C0.09155091 143.1690875 0.08488909 164.97553411 0.07543945 186.78198242 C0.06626698 207.97078431 0.05918534 229.1595852 0.05493164 250.34838867 C0.05466892 251.65344302 0.05440619 252.95849736 0.05413551 254.30309881 C0.05283052 260.8498673 0.0515668 267.39663581 0.05032361 273.94340432 C0.039949 328.29560619 0.02150963 382.64780117 0 437 C-44.55 437 -89.1 437 -135 437 C-135.08829183 392.87989122 -135.16210607 348.7598662 -135.20426132 304.63969426 C-135.20926375 299.42304471 -135.21444107 294.20639536 -135.21972656 288.98974609 C-135.2207758 287.95126775 -135.22182505 286.9127894 -135.22290608 285.84284201 C-135.24027979 269.05952157 -135.27180066 252.27625631 -135.30861118 235.49296853 C-135.34610523 218.25340621 -135.36825369 201.01387266 -135.37635398 183.77427125 C-135.38182425 173.14878631 -135.39905968 162.52345736 -135.43166587 151.89802048 C-135.4529184 144.59758671 -135.45917592 137.29723281 -135.45400551 129.99677041 C-135.45146032 125.79378291 -135.45517647 121.59106671 -135.4768219 117.38812828 C-135.64317 83.38691376 -131.84980111 52.13593458 -106.81640625 26.7890625 C-91.58678059 12.61818087 -20.49913332 -20.49913332 0 0 Z " fill="#005BA1" transform="translate(1444,150)"/>
<path d="M0 0 C0.76554199 0.00424484 1.53108398 0.00848969 2.31982422 0.01286316 C4.73442687 0.02948547 7.14815511 0.06710369 9.5625 0.10546875 C11.21222742 0.12053697 12.86196809 0.13422161 14.51171875 0.14648438 C18.5289762 0.17933458 22.54559052 0.23099902 26.5625 0.29296875 C26.5625 0.95296875 26.5625 1.61296875 26.5625 2.29296875 C27.92375 2.38578125 27.92375 2.38578125 29.3125 2.48046875 C44.19005233 4.60150472 59.15620014 15.93131116 68.5625 27.29296875 C75.05013756 36.19801025 82.5625 46.92216462 82.5625 58.29296875 C83.2225 58.29296875 83.8825 58.29296875 84.5625 58.29296875 C84.63713717 63.13098854 84.69133014 67.96866679 84.72729492 72.80712891 C84.74230136 74.45009201 84.76271312 76.09301561 84.78881836 77.73583984 C84.82556359 80.10914917 84.84230772 82.481925 84.85546875 84.85546875 C84.87095261 85.57976074 84.88643646 86.30405273 84.90238953 87.05029297 C84.90410578 92.35312058 83.64914454 96.45111022 81.5625 101.29296875 C80.92441406 103.00419922 80.92441406 103.00419922 80.2734375 104.75 C76.8871095 113.25542617 72.6623749 119.52116271 66.5625 126.29296875 C65.94761719 127.07285156 65.33273437 127.85273437 64.69921875 128.65625 C54.29267784 141.55857803 36.83391339 149.70680754 20.578125 152.04296875 C-3.27921893 154.02077965 -24.79753171 148.83346463 -43.4375 133.29296875 C-46.07391223 130.80434817 -48.26947734 128.19263181 -50.4375 125.29296875 C-51.09105469 124.48472656 -51.74460937 123.67648438 -52.41796875 122.84375 C-65.55135692 105.96500535 -69.74625451 85.01138933 -67.16064453 64.04833984 C-64.75633789 48.81424371 -57.74198004 32.94623059 -46.4375 22.29296875 C-45.95845215 21.83051758 -45.4794043 21.36806641 -44.98583984 20.89160156 C-36.90884322 13.18675762 -28.95098802 7.87635191 -18.44554138 4.04592896 C-17.15720204 3.56283719 -15.87842607 3.05292318 -14.61410522 2.5100708 C-9.60782961 0.42260381 -5.39061222 -0.11524008 0 0 Z " fill="#FE6A00" transform="translate(1907.4375,-0.29296875)"/>
</svg>
