<svg width="23" height="23" viewBox="0 0 23 23" fill="none" xmlns="http://www.w3.org/2000/svg">
<path fill-rule="evenodd" clip-rule="evenodd" d="M9.74597 0.382314C10.8594 -0.127438 12.1406 -0.127438 13.254 0.382314C17.2232 2.19952 20.1803 4.7991 21.6042 6.20139C22.372 6.95747 22.7823 7.96569 22.8398 9.0056C22.9108 10.2871 23 12.3649 23 14.7089C23 16.363 22.9555 17.8842 22.9045 19.0862C22.8227 21.0125 21.2846 22.5235 19.3638 22.5894C17.5865 22.6503 14.9445 22.7115 11.5 22.7115C8.05547 22.7115 5.41349 22.6503 3.6362 22.5894C1.71547 22.5235 0.177294 21.0125 0.0954909 19.0862C0.0444462 17.8842 0 16.363 0 14.7089C0 12.3649 0.0892553 10.2871 0.160177 9.0056C0.217728 7.96569 0.627987 6.95747 1.3958 6.20139C2.81976 4.7991 5.77683 2.19952 9.74597 0.382314ZM7.41111 17.3448C6.84654 17.3448 6.38889 17.8025 6.38889 18.3671C6.38889 18.9316 6.84654 19.3893 7.41111 19.3893H15.5889C16.1535 19.3893 16.6111 18.9316 16.6111 18.3671C16.6111 17.8025 16.1535 17.3448 15.5889 17.3448H7.41111Z" fill="#7E8CA0"/>
</svg>
