<svg width="25" height="20" viewBox="0 0 25 20" fill="none" xmlns="http://www.w3.org/2000/svg">
<path fill-rule="evenodd" clip-rule="evenodd" d="M14.4595 0.0115026C13.7488 0.00408638 12.9842 0 12.1622 0C7.58243 0 4.7854 0.12687 3.15245 0.249049C1.56681 0.367692 0.328265 1.52728 0.178459 3.13908C0.11214 3.8527 0.0477945 4.78503 0.00143772 5.98627C-0.0337407 6.89789 0.582924 7.56249 1.16151 7.89795C1.89277 8.32189 2.37865 9.10616 2.37865 10C2.37865 10.8938 1.89277 11.6781 1.16151 12.1021C0.582924 12.4375 -0.0337407 13.1021 0.00143772 14.0137C0.0477945 15.215 0.11214 16.1473 0.178459 16.8609C0.328265 18.4727 1.56681 19.6323 3.15246 19.751C4.7854 19.8731 7.58243 20 12.1622 20C12.9842 20 13.7488 19.9959 14.4595 19.9885V17.8378C14.4595 17.3154 14.883 16.8919 15.4054 16.8919C15.9278 16.8919 16.3514 17.3154 16.3514 17.8378V19.9588C18.5615 19.9116 20.1119 19.8303 21.1719 19.751C22.7575 19.6323 23.9961 18.4727 24.1459 16.8609C24.2122 16.1473 24.2765 15.215 24.3229 14.0138C24.3581 13.1022 23.7414 12.4376 23.1628 12.1021C22.4315 11.6782 21.9455 10.8939 21.9455 10C21.9455 9.10611 22.4315 8.32184 23.1628 7.89789C23.7414 7.56243 24.3581 6.89784 24.3229 5.98622C24.2765 4.78497 24.2122 3.8527 24.1459 3.13908C23.9961 1.52729 22.7575 0.367692 21.1719 0.249049C20.1119 0.169746 18.5615 0.0884594 16.3514 0.0411784V2.16216C16.3514 2.68459 15.9278 3.10811 15.4054 3.10811C14.883 3.10811 14.4595 2.68459 14.4595 2.16216V0.0115026ZM15.4054 5C15.9278 5 16.3514 5.42351 16.3514 5.94595V8.10811C16.3514 8.63054 15.9278 9.05405 15.4054 9.05405C14.883 9.05405 14.4595 8.63054 14.4595 8.10811V5.94595C14.4595 5.42351 14.883 5 15.4054 5ZM16.3514 11.8919C16.3514 11.3695 15.9278 10.9459 15.4054 10.9459C14.883 10.9459 14.4595 11.3695 14.4595 11.8919V14.0541C14.4595 14.5765 14.883 15 15.4054 15C15.9278 15 16.3514 14.5765 16.3514 14.0541V11.8919Z" fill="#7E8CA0"/>
</svg>
