<svg width="21" height="23" viewBox="0 0 21 23" fill="none" xmlns="http://www.w3.org/2000/svg">
<path fill-rule="evenodd" clip-rule="evenodd" d="M5.83333 3.45C5.83333 2.535 6.20208 1.65748 6.85846 1.01048C7.51484 0.363481 8.40508 0 9.33333 0H11.6667C12.5949 0 13.4852 0.363481 14.1415 1.01048C14.7979 1.65748 15.1667 2.535 15.1667 3.45H17.5C18.4283 3.45 19.3185 3.81348 19.9749 4.46048C20.6313 5.10748 21 5.985 21 6.9V18.4C21 19.315 20.6313 20.1925 19.9749 20.8395C19.3185 21.4865 18.4283 21.85 17.5 21.85C17.5 22.155 17.3771 22.4475 17.1583 22.6632C16.9395 22.8788 16.6428 23 16.3333 23C16.0239 23 15.7272 22.8788 15.5084 22.6632C15.2896 22.4475 15.1667 22.155 15.1667 21.85H5.83333C5.83333 22.155 5.71042 22.4475 5.49162 22.6632C5.27283 22.8788 4.97609 23 4.66667 23C4.35725 23 4.0605 22.8788 3.84171 22.6632C3.62292 22.4475 3.5 22.155 3.5 21.85C2.57174 21.85 1.6815 21.4865 1.02513 20.8395C0.368749 20.1925 0 19.315 0 18.4V6.9C0 5.985 0.368749 5.10748 1.02513 4.46048C1.6815 3.81348 2.57174 3.45 3.5 3.45H5.83333ZM8.16667 3.45H12.8333C12.8333 3.145 12.7104 2.85249 12.4916 2.63683C12.2728 2.42116 11.9761 2.3 11.6667 2.3H9.33333C9.02391 2.3 8.72717 2.42116 8.50838 2.63683C8.28958 2.85249 8.16667 3.145 8.16667 3.45ZM8.16667 9.2C8.16667 8.895 8.04375 8.60249 7.82496 8.38683C7.60617 8.17116 7.30942 8.05 7 8.05C6.69058 8.05 6.39383 8.17116 6.17504 8.38683C5.95625 8.60249 5.83333 8.895 5.83333 9.2V16.1C5.83333 16.405 5.95625 16.6975 6.17504 16.9132C6.39383 17.1288 6.69058 17.25 7 17.25C7.30942 17.25 7.60617 17.1288 7.82496 16.9132C8.04375 16.6975 8.16667 16.405 8.16667 16.1V9.2ZM15.1667 9.2C15.1667 8.895 15.0437 8.60249 14.825 8.38683C14.6062 8.17116 14.3094 8.05 14 8.05C13.6906 8.05 13.3938 8.17116 13.175 8.38683C12.9563 8.60249 12.8333 8.895 12.8333 9.2V16.1C12.8333 16.405 12.9563 16.6975 13.175 16.9132C13.3938 17.1288 13.6906 17.25 14 17.25C14.3094 17.25 14.6062 17.1288 14.825 16.9132C15.0437 16.6975 15.1667 16.405 15.1667 16.1V9.2Z" fill="#7E8CA0"/>
</svg>
