<svg width="25" height="25" viewBox="0 0 25 25" fill="none" xmlns="http://www.w3.org/2000/svg">
<g clip-path="url(#clip0_288_655)">
<path d="M18.0105 7.44535C17.4624 7.37752 17.1351 7.95034 17.278 8.4838L18.0545 11.3816C18.1974 11.915 18.7673 12.2475 19.2081 11.9147C19.9907 11.3237 20.3573 10.3165 20.0811 9.28564C19.8049 8.25481 18.9838 7.56581 18.0105 7.44535ZM10.5711 8.07968C10.4385 8.30936 10.2201 8.47696 9.96391 8.54561L4.72944 9.94818C3.84401 10.1854 3.31368 11.104 3.55093 11.9894L4.41366 15.2092C4.65091 16.0946 5.56947 16.6249 6.4549 16.3877C6.89946 16.2686 7.35641 16.5324 7.47552 16.9769L7.90689 18.5868C8.14414 19.4722 9.0627 20.0026 9.94813 19.7653L10.5921 19.5928C11.1255 19.4498 11.4421 18.9015 11.2992 18.368L10.7384 16.2752C10.5955 15.7417 10.9121 15.1934 11.4455 15.0505L11.6894 14.9851C11.9456 14.9165 12.2185 14.9524 12.4482 15.085L15.8132 17.0278C16.0429 17.1604 16.3159 17.1964 16.5721 17.1277L16.8159 17.0624C17.3494 16.9194 17.666 16.3711 17.523 15.8376L14.5897 4.89048C14.4468 4.35701 13.8984 4.04043 13.365 4.18337L13.1211 4.24871C12.865 4.31735 12.6465 4.48495 12.5139 4.71464L10.5711 8.07968Z" fill="#005BA1"/>
</g>
<defs>
<clipPath id="clip0_288_655">
<rect width="20" height="20" fill="white" transform="translate(0 5.17639) rotate(-15)"/>
</clipPath>
</defs>
</svg>
