<svg width="20" height="24" viewBox="0 0 20 24" fill="none" xmlns="http://www.w3.org/2000/svg">
<path fill-rule="evenodd" clip-rule="evenodd" d="M3.89367 0.516495C5.55807 0.255708 7.88479 0 10 0C12.1152 0 14.4419 0.255708 16.1064 0.516495C17.6866 0.764098 18.8844 2.01739 19.1424 3.62167C20.0102 9.01843 20.238 16.7537 19.7405 21.7714C19.611 23.0775 18.5273 24 17.3027 24H12.4996V20.0337C12.4996 18.6135 11.3805 17.4622 10 17.4622C8.61952 17.4622 7.50042 18.6135 7.50042 20.0337V24H2.69729C1.47271 24 0.388948 23.0775 0.259469 21.7714C-0.237976 16.7537 -0.0102808 9.01843 0.85764 3.62167C1.11565 2.01739 2.31341 0.764098 3.89367 0.516495ZM12.4996 11.7857C11.9244 11.7857 11.4581 12.2654 11.4581 12.8571C11.4581 13.4489 11.9244 13.9286 12.4996 13.9286H14.166C14.7412 13.9286 15.2075 13.4489 15.2075 12.8571C15.2075 12.2654 14.7412 11.7857 14.166 11.7857H12.4996ZM5.83402 6.64286C5.25882 6.64286 4.79252 7.12255 4.79252 7.71429C4.79252 8.30602 5.25882 8.78571 5.83402 8.78571H7.50042C8.07563 8.78571 8.54192 8.30602 8.54192 7.71429C8.54192 7.12255 8.07563 6.64286 7.50042 6.64286H5.83402ZM11.4581 7.71429C11.4581 7.12255 11.9244 6.64286 12.4996 6.64286H14.166C14.7412 6.64286 15.2075 7.12255 15.2075 7.71429C15.2075 8.30602 14.7412 8.78571 14.166 8.78571H12.4996C11.9244 8.78571 11.4581 8.30602 11.4581 7.71429ZM5.83402 11.7857C5.25882 11.7857 4.79252 12.2654 4.79252 12.8571C4.79252 13.4489 5.25882 13.9286 5.83402 13.9286H7.50042C8.07563 13.9286 8.54192 13.4489 8.54192 12.8571C8.54192 12.2654 8.07563 11.7857 7.50042 11.7857H5.83402Z" fill="url(#paint0_linear_316_569)"/>
<defs>
<linearGradient id="paint0_linear_316_569" x1="19.9318" y1="24.0051" x2="-5.6299" y2="12.0217" gradientUnits="userSpaceOnUse">
<stop stop-color="#4FB4FF"/>
<stop offset="1" stop-color="#005BA1"/>
</linearGradient>
</defs>
</svg>
