<svg width="24" height="17" viewBox="0 0 24 17" fill="none" xmlns="http://www.w3.org/2000/svg">
<path d="M12.0003 2.75C14.4485 2.75 16.7963 3.80357 18.5274 5.67893C20.2585 7.5543 21.2311 10.0978 21.2311 12.75L2.76953 12.75C2.76953 10.0978 3.74206 7.55429 5.47316 5.67893C7.20427 3.80357 9.55215 2.75 12.0003 2.75ZM12.0003 2.75C12.8362 2.75 14.0003 2.98751 14.0003 2.98751V1.75C14.0003 1.19772 13.5526 0.75 13.0003 0.75H11.0003C10.448 0.75 10.0003 1.19772 10.0003 1.75V2.98751C10.0003 2.98751 11.1644 2.75 12.0003 2.75Z" stroke="#242B42" stroke-width="1.5"/>
<line x1="0.75" y1="16" x2="23.25" y2="16" stroke="#242B42" stroke-width="1.5" stroke-linecap="round"/>
</svg>
