<svg width="21" height="25" viewBox="0 0 21 25" fill="none" xmlns="http://www.w3.org/2000/svg">
<path fill-rule="evenodd" clip-rule="evenodd" d="M7.52837 0.302673C7.74466 0.0525589 8.08348 -0.0542591 8.40412 0.026578C10.4291 0.537098 13.5476 1.86549 16.1767 4.23729C18.8244 6.62575 21 10.1002 21 14.8464C21 16.3465 20.5517 18.6212 19.0752 20.5997C17.572 22.6139 15.0578 24.2454 11.0937 24.4822L11.084 24.4829C5.8742 24.7361 2.20124 22.1185 0.720124 18.4812C-0.749342 14.8725 -0.00772351 10.3867 3.2938 6.99075C3.46199 6.81774 3.69414 6.72188 3.9354 6.7258C4.17665 6.72972 4.40558 6.83309 4.56805 7.01146L6.91638 9.58966C6.92145 9.59522 6.92602 9.59802 6.93115 9.59996C6.93654 9.60203 6.94275 9.6031 6.94856 9.60304C7.81541 8.11682 8.23518 6.82661 8.2979 5.53763C8.36106 4.23962 8.06599 2.86608 7.38151 1.20908C7.25526 0.903467 7.31209 0.552787 7.52837 0.302673ZM13.9967 14.1441C14.4239 13.717 14.4239 13.0245 13.9967 12.5973C13.5696 12.1702 12.8771 12.1702 12.45 12.5973L6.70418 18.3431C6.27706 18.7703 6.27706 19.4627 6.70418 19.8899C7.13131 20.3171 7.82383 20.3171 8.25097 19.8899L13.9967 14.1441ZM7.73612 12.4556C8.461 12.4556 9.04861 13.0432 9.04861 13.768C9.04861 14.4929 8.461 15.0805 7.73612 15.0805C7.01126 15.0805 6.42357 14.4929 6.42357 13.768C6.42357 13.0432 7.01126 12.4556 7.73612 12.4556ZM13.2642 17.4064C12.5393 17.4064 11.9516 17.994 11.9516 18.719C11.9516 19.4438 12.5393 20.0315 13.2641 20.0315C13.989 20.0315 14.5767 19.4438 14.5767 18.719C14.5767 17.994 13.9891 17.4064 13.2642 17.4064Z" fill="url(#paint0_linear_316_566)"/>
<defs>
<linearGradient id="paint0_linear_316_566" x1="22.8202" y1="29.6884" x2="-8.27172" y2="10.7571" gradientUnits="userSpaceOnUse">
<stop stop-color="#F0CA01"/>
<stop offset="1" stop-color="#FF3636"/>
</linearGradient>
</defs>
</svg>
