<svg width="18" height="22" viewBox="0 0 18 22" fill="none" xmlns="http://www.w3.org/2000/svg">
<path d="M2.62417 5.66436L0.767663 15.5657C0.652273 16.1811 1.1244 16.75 1.75054 16.75H15.3407C15.9668 16.75 16.4389 16.1811 16.3236 15.5657L14.4671 5.66436C13.9328 2.81487 11.4448 0.75 8.54561 0.75C5.64647 0.75 3.15844 2.81488 2.62417 5.66436Z" fill="white" stroke="#005BA1" stroke-width="1.5"/>
<path d="M5.54561 17.75V17.1944C5.54561 16.949 5.74459 16.75 5.99005 16.75H11.1012C11.3466 16.75 11.5456 16.949 11.5456 17.1944V17.75C11.5456 19.4069 10.2025 20.75 8.54561 20.75C6.88875 20.75 5.54561 19.4069 5.54561 17.75Z" fill="white" stroke="#005BA1" stroke-width="1.5"/>
</svg>
