<svg width="23" height="23" viewBox="0 0 23 23" fill="none" xmlns="http://www.w3.org/2000/svg">
<path fill-rule="evenodd" clip-rule="evenodd" d="M11.5 23C18.86 23 23 18.86 23 11.5C23 4.14 18.86 0 11.5 0C4.14 0 0 4.14 0 11.5C0 18.86 4.14 23 11.5 23ZM17.4744 18.9402C17.0561 18.1608 16.4862 17.4652 15.7914 16.8974C14.5804 15.9075 13.0643 15.3667 11.5001 15.3667C9.93597 15.3667 8.41991 15.9075 7.20882 16.8974C6.51408 17.4652 5.9442 18.1608 5.5258 18.9402C6.8933 19.9231 8.83805 20.5357 11.5002 20.5357C14.1623 20.5357 16.107 19.9231 17.4744 18.9402ZM15.3691 8.65587C15.3691 11.1328 13.9758 12.5261 11.4989 12.5261C9.02196 12.5261 7.62869 11.1328 7.62869 8.65587C7.62869 6.17895 9.02196 4.78568 11.4989 4.78568C13.9758 4.78568 15.3691 6.17895 15.3691 8.65587Z" fill="#7E8CA0"/>
</svg>
